{
	"asset":{
		"generator":"Khronos glTF Blender I/O v4.2.60",
		"version":"2.0"
	},
	"scene":0,
	"scenes":[
		{
			"name":"Scene",
			"nodes":[
				0
			]
		}
	],
	"nodes":[
		{
			"mesh":0,
			"name":"Icosphere",
			"rotation":[
				0,
				0.7071068286895752,
				0,
				0.7071068286895752
			],
			"scale":[
				2.808448553085327,
				2.5290756225585938,
				3.000000238418579
			],
			"translation":[
				0,
				-0.18069642782211304,
				0
			]
		}
	],
	"meshes":[
		{
			"name":"Icosphere.001",
			"primitives":[
				{
					"attributes":{
						"POSITION":0,
						"NORMAL":1,
						"TEXCOORD_0":2
					},
					"indices":3
				}
			]
		}
	],
	"accessors":[
		{
			"bufferView":0,
			"componentType":5126,
			"count":1247,
			"max":[
				1,
				1,
				0.9999999403953552
			],
			"min":[
				-0.06820552796125412,
				-0.18620418012142181,
				-0.9999999403953552
			],
			"type":"VEC3"
		},
		{
			"bufferView":1,
			"componentType":5126,
			"count":1247,
			"type":"VEC3"
		},
		{
			"bufferView":2,
			"componentType":5126,
			"count":1247,
			"type":"VEC2"
		},
		{
			"bufferView":3,
			"componentType":5123,
			"count":1416,
			"type":"SCALAR"
		}
	],
	"bufferViews":[
		{
			"buffer":0,
			"byteLength":14964,
			"byteOffset":0,
			"target":34962
		},
		{
			"buffer":0,
			"byteLength":14964,
			"byteOffset":14964,
			"target":34962
		},
		{
			"buffer":0,
			"byteLength":9976,
			"byteOffset":29928,
			"target":34962
		},
		{
			"buffer":0,
			"byteLength":2832,
			"byteOffset":39904,
			"target":34963
		}
	],
	"buffers":[
		{
			"byteLength":42736,
			"uri":"sphere_half.bin"
		}
	]
}
